# xmcd CD database file
#
# Track frame offsets:
#	150
#	20387
#	37682
#	56297
#	82470
#	102667
#	124662
#	148567
#	170640
#	190082
#	206992
#	230627
#	265317
#
# Disc length: 4440 seconds
#
# Revision: 1
# Processed by: cddbd v1.5PL3 Copyright (c) Steve Scherf et al.
# Submitted via: CDex 1.50
#
DISCID=bb11560d
DTITLE=day after tomorrow - elements
DYEAR=2003
DGENRE=JPop
TTITLE0=for you
TTITLE1=Hello, everybody!
TTITLE2=rosy girl
TTITLE3=gift
TTITLE4=futurity
TTITLE5=gradually
TTITLE6=melody
TTITLE7=after all...
TTITLE8=prize
TTITLE9=vivace
TTITLE10=faraway
TTITLE11=My faith
TTITLE12=w
EXTD=YEAR: 2003
EXTT0=
EXTT1=
EXTT2=
EXTT3=
EXTT4=
EXTT5=
EXTT6=
EXTT7=
EXTT8=
EXTT9=
EXTT10=
EXTT11=
EXTT12=
PLAYORDER=
